<svg width="96" height="96" viewBox="0 0 96 96" fill="none" xmlns="http://www.w3.org/2000/svg">
<path d="M81.9411 14.0588C72.8751 4.99275 60.8213 0 48 0C35.1786 0 23.1246 4.99294 14.0588 14.0588C4.99275 23.1248 0 35.1787 0 48C0 60.8213 4.99275 72.8752 14.0588 81.9412C23.1246 91.0071 35.1786 96 48 96C60.8213 96 72.8751 91.0072 81.9411 81.9412C91.0071 72.8751 96 60.8213 96 48C96 35.1787 91.0071 23.1249 81.9411 14.0588ZM48 90.375C24.6343 90.375 5.625 71.3657 5.625 48C5.625 24.6343 24.6343 5.625 48 5.625C71.3657 5.625 90.375 24.6343 90.375 48C90.375 71.3657 71.3657 90.375 48 90.375Z" fill="white"/>
<path d="M66.1005 46.8046L40.14 29.3422C39.5202 28.9254 38.7235 28.8864 38.0667 29.2412C37.41 29.5958 37 30.2863 37 31.0379V65.9621C37 66.7137 37.41 67.4043 38.0667 67.7589C38.3653 67.9201 38.6928 68 39.0196 68C39.4114 68 39.8022 67.8851 40.14 67.6578L66.1005 50.1958C66.6624 49.8178 67 49.1815 67 48.5001C66.9999 47.819 66.6624 47.1826 66.1005 46.8046ZM41.0394 62.1546V34.8458L61.3389 48.5003L41.0394 62.1546Z" fill="white"/>
</svg>
