<svg width="100" height="74" viewBox="0 0 100 74" fill="none" xmlns="http://www.w3.org/2000/svg">
<path d="M85.1791 0.000244141H14.9437C6.72467 0.000244141 0 6.72467 0 14.944V58.5298C0 66.7488 6.72467 73.4735 14.9437 73.4735H85.0546C93.2736 73.4735 99.9983 66.7488 99.9983 58.5298V14.944C100.123 6.72467 93.3982 0.000244141 85.1791 0.000244141ZM69.9864 37.9822C69.7373 38.3558 69.4882 38.6048 69.1146 38.8539L40.0989 56.0392C38.8536 56.7863 37.3593 56.2882 36.7366 55.1674C36.4875 54.7938 36.363 54.4202 36.363 53.9221V19.5516C36.363 18.1818 37.4838 17.061 38.8536 17.061C39.2272 17.061 39.7254 17.1855 40.0989 17.4346L69.1146 34.6198C70.2354 35.3668 70.7335 36.8611 69.9864 37.9822Z" fill="white"/>
</svg>
